HIERARCHY
ROOT Hips
{
	OFFSET 0.000000 0.000000 0.000000
	CHANNELS 6 Xposition Yposition Zposition Xrotation Yrotation Zrotation
	JOINT LeftUpLeg_virtual
	{
		OFFSET 0.000000 0.000000 0.000000
		CHANNELS 3 Xrotation Yrotation Zrotation
		JOINT LeftUpLeg
		{
			OFFSET 15.427100 -6.655098 0.678600
			CHANNELS 3 Xrotation Yrotation Zrotation
			JOINT LeftLeg
			{
				OFFSET 4.081073 -39.591068 13.024000
				CHANNELS 3 Xrotation Yrotation Zrotation
				JOINT LeftFoot
				{
					OFFSET -4.081074 -37.707932 -15.979700
					CHANNELS 3 Xrotation Yrotation Zrotation
					JOINT LeftToeBase
					{
						OFFSET 5.346399 -15.068900 20.645000
						CHANNELS 3 Xrotation Yrotation Zrotation
						JOINT LeftToe_End
						{
							OFFSET 2.754700 0.931300 11.300900
							CHANNELS 3 Xrotation Yrotation Zrotation
							End Site
							{
								OFFSET 0 0 0
							}
						}
					}
				}
			}
		}
	}
	JOINT RightUpLeg_virtual
	{
		OFFSET 0.000000 0.000000 0.000000
		CHANNELS 3 Xrotation Yrotation Zrotation
		JOINT RightUpLeg
		{
			OFFSET -15.569500 -6.655098 0.678600
			CHANNELS 3 Xrotation Yrotation Zrotation
			JOINT RightLeg
			{
				OFFSET -4.081825 -39.591045 13.023800
				CHANNELS 3 Xrotation Yrotation Zrotation
				JOINT RightFoot
				{
					OFFSET 4.081824 -37.707954 -15.979600
					CHANNELS 3 Xrotation Yrotation Zrotation
					JOINT RightToeBase
					{
						OFFSET -5.346400 -15.068900 20.645000
						CHANNELS 3 Xrotation Yrotation Zrotation
						JOINT RightToe_End
						{
							OFFSET -2.754700 0.931300 11.300900
							CHANNELS 3 Xrotation Yrotation Zrotation
							End Site
							{
								OFFSET 0 0 0
							}
						}
					}
				}
			}
		}
	}
	JOINT Spine_virtual
	{
		OFFSET 0.000000 0.000000 0.000000
		CHANNELS 3 Xrotation Yrotation Zrotation
		JOINT Spine
		{
			OFFSET -0.279200 12.230698 -2.892100
			CHANNELS 3 Xrotation Yrotation Zrotation
			JOINT Spine1
			{
				OFFSET -0.232667 10.192268 -1.242267
				CHANNELS 3 Xrotation Yrotation Zrotation
				JOINT Spine1_split
				{
					OFFSET -0.232667 10.192268 -1.242267
					CHANNELS 3 Xrotation Yrotation Zrotation
					JOINT Spine2
					{
						OFFSET -0.232667 10.192268 -1.242267
						CHANNELS 3 Xrotation Yrotation Zrotation
						JOINT Neck_virtual
						{
							OFFSET 0.000000 0.000000 0.000000
							CHANNELS 3 Xrotation Yrotation Zrotation
							JOINT Neck
							{
								OFFSET -0.418800 17.814194 8.416900
								CHANNELS 3 Xrotation Yrotation Zrotation
								JOINT Head
								{
									OFFSET 0.000000 7.031097 3.806800
									CHANNELS 3 Xrotation Yrotation Zrotation
									JOINT HeadTop_End
									{
										OFFSET 0.000000 24.646606 12.978600
										CHANNELS 3 Xrotation Yrotation Zrotation
										End Site
										{
											OFFSET 0 0 0
										}
									}
								}
							}
						}
						JOINT LeftShoulder_virtual
						{
							OFFSET 0.000000 0.000000 0.000000
							CHANNELS 3 Xrotation Yrotation Zrotation
							JOINT LeftShoulder
							{
								OFFSET 8.476499 7.247704 -3.868750
								CHANNELS 3 Xrotation Yrotation Zrotation
								JOINT LeftShoulder_split
								{
									OFFSET 8.476499 7.247704 -3.868750
									CHANNELS 3 Xrotation Yrotation Zrotation
									JOINT LeftArm
									{
										OFFSET 9.308998 -2.777710 0.208600
										CHANNELS 3 Xrotation Yrotation Zrotation
										JOINT LeftForeArm
										{
											OFFSET 29.972298 0.000000 0.000000
											CHANNELS 3 Xrotation Yrotation Zrotation
											JOINT LeftHand
											{
												OFFSET 26.026505 0.000000 0.000000
												CHANNELS 3 Xrotation Yrotation Zrotation
												End Site
												{
													OFFSET 0 0 0
												}
											}
										}
									}
								}
							}
						}
						JOINT RightShoulder_virtual
						{
							OFFSET 0.000000 0.000000 0.000000
							CHANNELS 3 Xrotation Yrotation Zrotation
							JOINT RightShoulder
							{
								OFFSET -7.570500 7.247704 -3.868750
								CHANNELS 3 Xrotation Yrotation Zrotation
								JOINT RightShoulder_split
								{
									OFFSET -7.570500 7.247704 -3.868750
									CHANNELS 3 Xrotation Yrotation Zrotation
									JOINT RightArm
									{
										OFFSET -9.308998 -2.777710 0.208500
										CHANNELS 3 Xrotation Yrotation Zrotation
										JOINT RightForeArm
										{
											OFFSET -29.972300 0.000000 0.000000
											CHANNELS 3 Xrotation Yrotation Zrotation
											JOINT RightHand
											{
												OFFSET -26.026505 0.000000 0.000000
												CHANNELS 3 Xrotation Yrotation Zrotation
												End Site
												{
													OFFSET 0 0 0
												}
											}
										}
									}
								}
							}
						}
					}
				}
			}
		}
	}
}
MOTION
Frames: 4
Frame Time: 0.03333333
15.198297 138.372620 -17.837914 0.000000 0.000000 0.000000 -89.555671 -10.596539 -3.476453 12.406177 28.931356 4.206961 -0.602201 -13.733487 -8.364601 8.965609 31.570357 -4.503142 10.266309 -0.208300 7.424719 0.000000 0.000000 0.000000 -88.629511 -6.183363 0.400716 2.884938 -19.838249 -10.636829 -4.050068 15.371423 -11.749104 15.543557 -29.113961 19.276040 6.607371 -3.628132 -26.107290 0.000000 0.000000 0.000000 -91.764049 -1.657759 3.215778 1.480854 -5.605075 -2.739208 -1.304985 -2.699819 -0.744080 0.020534 0.538319 -0.164248 0.000000 0.000000 0.000000 1.092352 0.661464 0.001005 -7.126458 -24.070623 -13.402908 6.505619 -52.967024 28.964401 0.000000 0.000000 0.000000 -0.218221 0.830249 -1.751603 3.785393 -4.246284 -11.186544 7.902177 -9.588799 1.123247 51.912180 -26.645975 -28.040432 -21.904067 -33.378725 -12.032442 0.000000 0.000000 0.000000 2.099405 -0.752510 -2.658633 -1.377796 -1.122192 6.692699 19.837173 7.143382 6.343486 -8.756898 -1.438174 72.660597 106.759388 77.975065 -98.733117 0.000000 0.000000 0.000000 
15.201400 138.372864 -17.844223 0.000000 0.000000 0.000000 -89.558888 -10.583752 -3.475981 12.407421 28.930837 4.204665 -0.603209 -13.733168 -8.360116 8.951309 31.559664 -4.479601 10.267212 -0.208607 7.422093 0.000000 0.000000 0.000000 -88.632708 -6.170718 0.401052 2.892026 -19.849822 -10.633151 -4.051242 15.368976 -11.746879 15.550111 -29.123694 19.278740 6.600367 -3.623900 -26.101004 0.000000 0.000000 0.000000 -91.766658 -1.660421 3.207516 1.493958 -5.595343 -2.703992 -1.298850 -2.690366 -0.744083 0.020079 0.537383 -0.163863 0.000000 0.000000 0.000000 1.096391 0.670036 -0.002142 -7.185794 -24.043632 -13.398232 6.394706 -52.943139 28.851638 0.000000 0.000000 0.000000 -0.213630 0.835893 -1.752345 3.782782 -4.268164 -11.209163 7.886536 -9.604321 1.134717 51.916794 -26.615751 -28.045863 -21.892155 -33.414826 -12.040596 0.000000 0.000000 0.000000 2.105399 -0.741818 -2.658349 -1.375043 -1.102633 6.709669 19.815110 7.149158 6.355987 -8.728201 -1.428471 72.630770 106.859997 77.989812 -98.849038 0.000000 0.000000 0.000000 
15.203286 138.369965 -17.847244 0.000000 0.000000 0.000000 -89.562030 -10.568393 -3.479944 12.398684 28.935758 4.209399 -0.598762 -13.737711 -8.356172 8.937089 31.540601 -4.460704 10.262174 -0.209058 7.422525 0.000000 0.000000 0.000000 -88.634661 -6.153125 0.399656 2.894476 -19.857546 -10.633687 -4.048948 15.362045 -11.740307 15.564761 -29.133062 19.274551 6.597813 -3.621070 -26.088879 0.000000 0.000000 0.000000 -91.766979 -1.661891 3.194722 1.512717 -5.589621 -2.667002 -1.295721 -2.676345 -0.745444 0.020002 0.536317 -0.163686 0.000000 0.000000 0.000000 1.099463 0.682884 -0.006499 -7.295272 -24.020018 -13.392632 6.238562 -52.912021 28.699717 0.000000 0.000000 0.000000 -0.211295 0.846650 -1.753881 3.780260 -4.270828 -11.220208 7.872752 -9.618295 1.144024 51.912351 -26.598719 -28.052968 -21.862047 -33.442160 -12.038823 0.000000 0.000000 0.000000 2.108641 -0.727311 -2.659920 -1.375915 -1.091004 6.725597 19.788334 7.159315 6.373929 -8.704445 -1.411242 72.610382 106.919050 78.008629 -98.933364 0.000000 0.000000 0.000000 
15.204000 138.365387 -17.847061 0.000000 0.000000 0.000000 -89.564571 -10.551736 -3.487076 12.378132 28.944132 4.222116 -0.588454 -13.748231 -8.353591 8.930748 31.512758 -4.452377 10.253407 -0.209518 7.426605 0.000000 0.000000 0.000000 -88.635672 -6.132704 0.397437 2.894037 -19.863230 -10.636559 -4.050028 15.349095 -11.731295 15.576803 -29.144697 19.257087 6.606239 -3.620703 -26.072789 0.000000 0.000000 0.000000 -91.763475 -1.661898 3.179792 1.534989 -5.588565 -2.631198 -1.296174 -2.659480 -0.747576 0.020081 0.535164 -0.163392 0.000000 0.000000 0.000000 1.101046 0.698635 -0.010981 -7.442618 -24.001194 -13.385554 6.047583 -52.878816 28.518637 0.000000 0.000000 0.000000 -0.212320 0.861109 -1.755709 3.777990 -4.255396 -11.218468 7.858274 -9.630214 1.153101 51.902915 -26.594424 -28.059129 -21.816644 -33.458802 -12.027626 0.000000 0.000000 0.000000 2.108288 -0.710356 -2.662425 -1.379851 -1.088076 6.738397 19.758994 7.172458 6.392821 -8.685254 -1.384537 72.602930 106.920997 78.030895 -98.968485 0.000000 0.000000 0.000000 
